{"title":"The.Brazen.Bull.2010.DvDRip.H264.Feel-Free","uid":5942229,"size":752925456,"categoryP":"video","categoryS":"movies","magnet":"?xt=urn:btih:5af944d05bd3a05f5522978b5217e0e427e44785&amp;dn=The.Brazen.Bull.2010.DvDRip.H264.Feel-Free&amp;tr=udp%3A%2F%2Ftracker.openbittorrent.com%3A80&amp;tr=udp%3A%2F%2Fopen.demonii.com%3A1337&amp;tr=udp%3A%2F%2Ftracker.coppersurfer.tk%3A6969&amp;tr=udp%3A%2F%2Fexodus.desync.com%3A6969","seeders":0,"leechers":1,"uploader":"neon","files":9,"time":1289209142,"description":"Genre:Thriller\nLanguage:English\nIMDb:http://www.imdb.com/title/tt1415284/\nSource:DVD\n\nGeneral\nComplete name :The.Brazen.Bull.2010.DvDRip.H264.Feel-Free\nFormat : MPEG-4\nFormat profile : Base Media\nCodec ID : mp42\nFile size : 717 MiB\nDuration : 1h 23mn\nOverall bit rate : 1 193 Kbps\nVideo #1\nCodec ID : avc1\nCodec ID/Info : Advanced Video Coding\nDuration : 1h 23mn\nBit rate mode : Variable\nBit rate : 712 Kbps\nWidth : 720 pixels\nHeight : 304 pixels\nDisplay aspect ratio : 2.35:1\nFrame rate mode : Constant\nFrame rate : 23.976 fps\nResolution : 24 bits\nColorimetry : 4:2:0\nScan type : Progressive\nBits/(Pixel*Frame) : 0.136\nStream size : 427 MiB (60%)\nAudio #2\nID : 2\nFormat : AAC\nFormat/Info : Advanced Audio Codec\nFormat version : Version 4\nFormat profile : LC\nFormat settings, SBR : No\nCodec ID : 40\nDuration : 1h 23mn\nBit rate mode : Constant\nBit rate : 477 Kbps\nNominal bit rate : 480 Kbps\nChannel(s) : 6 channels\nChannel positions : Front: L C R, Rear: L R, LFE\nSampling rate : 48.0 KHz\nResolution : 16 bits\nStream size : 287 MiB (40%)\n\nPlot:\nAn ice cold tale of misguided ambition and savage revenge. Set in the bowels of an iconic derelict Los Angeles high-rise, we follow Lauren and her real-estate investing fiancÃŽËœ as they discover first hand what happens when a madman leads not with emotion, but rather chilling rationality. The Man in question brings a heaping helping of sanity and jet-black humor to the crazy table.\n\n","torrent":{"xt":"urn:btih:5af944d05bd3a05f5522978b5217e0e427e44785","amp;dn":"The.Brazen.Bull.2010.DvDRip.H264.Feel-Free","amp;tr":["udp%3A%2F%2Ftracker.openbittorrent.com%3A80","udp%3A%2F%2Fopen.demonii.com%3A1337","udp%3A%2F%2Ftracker.coppersurfer.tk%3A6969","udp%3A%2F%2Fexodus.desync.com%3A6969"],"infoHash":"5af944d05bd3a05f5522978b5217e0e427e44785","infoHashBuffer":{"type":"Buffer","data":[90,249,68,208,91,211,160,95,85,34,151,139,82,23,224,228,39,228,71,133]},"announce":[],"urlList":[]}}